<?xml version="1.0" encoding="utf-8"?>
<!-- Generator: Adobe Illustrator 28.1.0, SVG Export Plug-In . SVG Version: 6.00 Build 0)  -->
<svg version="1.1" id="Layer_1" xmlns="http://www.w3.org/2000/svg" xmlns:xlink="http://www.w3.org/1999/xlink" x="0px" y="0px"
	 viewBox="0 0 1000 1000" style="enable-background:new 0 0 1000 1000;" xml:space="preserve">
<style type="text/css">
	.st0{fill:#E00B14;}
	.st1{fill:#FFFFFF;}
</style>
<g id="Layer_1-2">
	<g id="Artwork_00000147184928871107624040000006633034545594883254_">
		<g>
			<path class="st0" d="M642.1,512c14.3-24.9,22.5-52.9,25.5-80.2h-43.8c-1.1,16.9-4.4,33.9-10.3,49.3c-5.7,15-13.1,28.4-22.5,39.4
				l0,0c-14.3,16.4-32.4,27-53.3,27c-24.6,0-41.5-10.5-47.8-28.2H443c-7.6,18.3-25.5,27.4-48.2,27.4c-24.9,0-50.3-17.9-53.3-54.3
				h146.4c3.8-17.9,17.9-31.4,40.9-40.2c0,0,21.3-7.8,42.3-16.9l0,0c29.3-13.5,51.2-37.7,51.2-68.2c0-43.4-37.3-58.3-70.8-58.3
				c-42.3,0-73.7,22.3-73.7,57.7c0,20.9,11.4,40.4,28,60.2c-8.8,3.2-17.5,7.2-25.3,12.2c-13.5-37.3-44.7-61.5-87-61.5
				c-55.8,0-96.5,41.9-96.5,101.1s36.2,104.5,99.4,104.5c29.1,0,51-10.5,66.1-25.5c15.6,15.8,38.8,25.5,67.2,25.5
				c35,0,63.6-13.9,85.5-35.4l28,30.8h59.6L642.1,512L642.1,512z M551.7,341.6c16,0,29.3,9.1,29.3,27c0,16.4-9.9,32.4-32.2,42.3
				l-0.4-0.4c-13.1-13.9-25.5-29.9-25.5-45.3C522.9,350.2,536.5,341.6,551.7,341.6z M393.5,411.1c25.5,0,48.9,18.5,50.1,49.3H341.5
				C345.1,423.3,373.1,411.1,393.5,411.1z"/>
			<g>
				<path class="st0" d="M327.2,683.7c4.8,0,8.6-1.9,10.1-5.9h9.1c-1.9,6.7-8.2,13.5-19,13.5c-13.3,0-21.1-10.3-21.1-22.1
					c0-12.6,8.6-21.5,20.4-21.5c12.8,0,20.6,10.3,20,24.4h-31C316.6,679.9,321.9,683.7,327.2,683.7z M337.5,665.3
					c-0.2-6.5-5.3-10.5-10.5-10.5c-4.4,0-10.3,2.5-11,10.5H337.5z"/>
				<path class="st0" d="M363,637.5v11h8.4v6.7H363V678c0,4.2,1.1,5.3,4.8,5.3h3.4v7h-6.7c-8.8,0-10.7-2.3-10.7-11v-24h-6.1v-6.7
					h6.1v-11L363,637.5L363,637.5z"/>
				<path class="st0" d="M386.2,643.4h-9.3v-9.3h9.3V643.4z M386.2,690.2h-9.3v-41.7h9.3V690.2z"/>
				<path class="st0" d="M409.3,654.6c-4,0-7.8,1.7-7.8,4.6s2.1,4.2,5.5,5.1l5.9,1.3c8.4,1.7,14.7,4.2,14.7,12.4
					c0,8.6-8.2,13.5-17.7,13.5c-10.1,0-17.1-5.9-17.9-13.7h9.1c0.8,4.2,4,6.7,9.3,6.7c4.8,0,8.4-2.1,8.4-5.5c0-3.4-3.2-5.1-7.2-5.7
					l-6.3-1.3c-7-1.5-12.4-4.6-12.4-12.2c0-7.6,7.8-12,16.9-12c8.2,0,15.6,4,17.3,12.2h-8.6C417.3,656.1,414,654.6,409.3,654.6
					L409.3,654.6z"/>
				<path class="st0" d="M459.5,664.3v-0.8c0-7.2-4-9.3-8.6-9.3c-4.6,0-8.2,2.5-8.4,7.6h-9.1c0.6-8.4,7.6-14.3,17.7-14.3
					s17.7,4.6,17.5,17.9c0,2.1-0.2,7-0.2,10.7c0,5.3,0.4,10.7,1.3,14.3h-8.4c-0.2-1.7-0.6-2.7-0.8-5.7c-2.5,4.4-7.6,6.7-13.7,6.7
					c-9.1,0-15.4-4.8-15.4-12.4C431.7,668.3,444.3,665.8,459.5,664.3L459.5,664.3z M441.3,678.6c0,3.6,2.9,5.9,7.6,5.9
					c6.7,0,10.7-3.6,10.7-10.5v-3.4C446.6,671.9,441.3,673.8,441.3,678.6z"/>
				<path class="st0" d="M476.5,690.2v-56h9.3v56H476.5z"/>
				<path class="st0" d="M519.7,664.3v-0.8c0-7.2-4-9.3-8.6-9.3c-4.6,0-8.2,2.5-8.4,7.6h-9.1c0.6-8.4,7.6-14.3,17.7-14.3
					s17.7,4.6,17.5,17.9c0,2.1-0.2,7-0.2,10.7c0,5.3,0.4,10.7,1.3,14.3h-8.4c-0.2-1.7-0.6-2.7-0.8-5.7c-2.5,4.4-7.6,6.7-13.7,6.7
					c-9.1,0-15.4-4.8-15.4-12.4C491.7,668.3,504.3,665.8,519.7,664.3L519.7,664.3z M501.4,678.6c0,3.6,2.9,5.9,7.6,5.9
					c6.7,0,10.7-3.6,10.7-10.5v-3.4C506.6,671.9,501.4,673.8,501.4,678.6z"/>
				<path class="st0" d="M546.9,637.5v11h8.4v6.7h-8.4V678c0,4.2,1.1,5.3,4.8,5.3h3.4v7h-6.7c-8.8,0-10.7-2.3-10.7-11v-24h-6.1v-6.7
					h6.1v-11L546.9,637.5L546.9,637.5z"/>
				<path class="st0" d="M604.2,664.3v-0.8c0-7.2-4-9.3-8.6-9.3c-4.6,0-8.2,2.5-8.4,7.6H578c0.6-8.4,7.6-14.3,17.7-14.3
					s17.7,4.6,17.5,17.9c0,2.1-0.2,7-0.2,10.7c0,5.3,0.4,10.7,1.3,14.3h-8.4c-0.2-1.7-0.6-2.7-0.8-5.7c-2.5,4.4-7.6,6.7-13.7,6.7
					c-9.1,0-15.4-4.8-15.4-12.4C576.1,668.3,589,665.8,604.2,664.3L604.2,664.3z M586,678.6c0,3.6,2.9,5.9,7.6,5.9
					c6.7,0,10.7-3.6,10.7-10.5v-3.4C591.3,671.9,586,673.8,586,678.6L586,678.6z"/>
				<path class="st0" d="M642.9,647.7c10.1,0,14.1,6.5,14.1,16.4v26.1H648v-23.8c0-5.7-0.8-11.2-7.8-11.2c-7,0-9.7,5.5-9.7,12.8
					v22.1h-9.3v-41.7h9.3v5.9C632.8,650,637.2,647.7,642.9,647.7L642.9,647.7z"/>
				<path class="st0" d="M702.3,634.2v56H693v-5.5c-2.5,4-6.7,6.5-12.4,6.5c-9.9,0-18.1-8.4-18.1-21.9s8.2-21.7,18.1-21.7
					c5.5,0,9.9,2.3,12.4,6.5v-20L702.3,634.2L702.3,634.2z M672.2,669.3c0,8.8,4.4,14.3,10.5,14.3c6.1,0,10.7-4.6,10.7-14.3
					c0-9.7-4.6-14.3-10.7-14.3C676.6,655.2,672.2,660.7,672.2,669.3z"/>
			</g>
		</g>
	</g>
</g>
</svg>
